<svg xmlns="http://www.w3.org/2000/svg" viewBox="0 0 400 400" width="400" height="400">
  <rect width="400" height="400" fill="#FAE0F0"/>
  <rect x="32" y="32" width="336" height="252" rx="12" fill="#F0B8D8"/>
  <!-- Abstract waves -->
  <path d="M32 160 Q100 120 168 160 Q236 200 304 160 Q340 140 368 160 L368 284 L32 284 Z" fill="#E91E8C" opacity="0.2"/>
  <path d="M32 190 Q100 150 168 190 Q236 230 304 190 Q340 170 368 190 L368 284 L32 284 Z" fill="#C2185B" opacity="0.18"/>
  <path d="M32 220 Q100 180 168 220 Q236 260 304 220 Q340 200 368 220 L368 284 L32 284 Z" fill="#AD1457" opacity="0.15"/>
  <!-- Stars -->
  <circle cx="100" cy="100" r="8" fill="#E91E8C" opacity="0.5"/>
  <circle cx="300" cy="80"  r="6" fill="#C2185B" opacity="0.45"/>
  <circle cx="220" cy="70"  r="5" fill="#E91E8C" opacity="0.4"/>
  <!-- Bottom label bar -->
  <rect y="316" width="400" height="84" fill="#8B0D53"/>
  <rect y="316" width="400" height="4" fill="#F0B8D8"/>
  <text x="200" y="362" text-anchor="middle" font-family="Calibri, Segoe UI, sans-serif" font-size="26" font-weight="bold" fill="#FFFFFF">Obra 2 — Cat. 2</text>
  <text x="200" y="388" text-anchor="middle" font-family="Calibri, Segoe UI, sans-serif" font-size="15" fill="#F0B8D8" opacity="0.85">cat2_p2 · Imagen de ejemplo</text>
</svg>
